<?xml version="1.0" encoding="UTF-8"?>
<svg id="Layer_1" data-name="Layer 1" xmlns="http://www.w3.org/2000/svg" viewBox="0 0 190.29 110.47">
  <defs>
    <style>
      .cls-1 {
        fill: #f9b355;
        font-family: ROGFonts-Regular, 'ROG Fonts';
        font-size: 31.89px;
      }

      .cls-2 {
        letter-spacing: -.05em;
      }

      .cls-3 {
        fill: #d6cd1a;
      }
    </style>
  </defs>
  <path class="cls-3" d="M133.44,0l-39.55,13.6V60.95c-1.73-.81-4.02-.94-6.3-.18-3.95,1.32-6.35,4.78-5.36,7.74s4.99,4.29,8.93,2.98c3.52-1.17,5.81-4.06,5.55-6.78V22.09l33.9-11.67v30.77c-1.73-.82-4.04-.96-6.33-.19-3.95,1.32-6.35,4.78-5.36,7.74s4.99,4.29,8.93,2.98c3.32-1.11,5.54-3.73,5.57-6.3h0V0ZM61.87,.43V40.93c-1.76-.84-4.22-.91-6.56-.13-4.02,1.34-6.46,4.87-5.46,7.89s5.08,4.37,9.1,3.03c3.38-1.13,5.69-3.8,5.73-6.42h.01V13.62s12.17,3.52,16.01,16.95c0-15.35-13.18-17.89-18.83-30.13Zm17.35,65.92H45.86v1.88h33.41c-.1-.62-.11-1.26-.05-1.88Zm57.04,1.88v-1.88h-36.82c-.11,.65-.3,1.28-.56,1.88h37.38ZM48.76,52.23h-2.9v1.88h5.53c-1.02-.47-1.91-1.11-2.63-1.88Zm87.5,1.88v-1.88h-3.55c-.92,.76-1.99,1.4-3.18,1.88h6.73Zm-18.46-1.88h-18.27v1.88h20.86c-.98-.45-1.86-1.09-2.59-1.88Zm-53.97,0c-.98,.78-2.07,1.42-3.23,1.88h30.46v-1.88h-27.22Zm3.68-14.12h23.54v1.88h-23.54v-1.88Zm-13.07,0h-8.59v1.88h4.94c1.04-.78,2.26-1.42,3.62-1.87,.01,0,.02,0,.03,0Zm45.08,1.88h20.55c1.01-.71,2.13-1.27,3.3-1.67l.75-.22h-24.6v1.88Zm-25.19-16.01h-6.83v1.88h8.09c-.4-.67-.83-1.3-1.27-1.88Zm-28.49,0h13.18v1.88h-13.18v-1.88Zm53.67,1.88h28.25v-1.88h-27.87l-.38,.13v1.75Zm-16.43,0h7.96v-1.88h-8.38l.42,1.88Zm-8.3-14.12h16.98c.32-.37,.73-.64,1.19-.8l3.15-1.08h-23.24l1.93,1.88Zm-28.94-1.88h13.18v1.88h-13.18v-1.88Z"/>
  <text class="cls-1" transform="translate(0 107.12) scale(.99 1)"><tspan x="0" y="0">onBea</tspan><tspan class="cls-2" x="137.2" y="0">t</tspan><tspan x="164.56" y="0">s</tspan></text>
</svg>